<?xml version="1.0" standalone="no"?>
<!DOCTYPE svg PUBLIC "-//W3C//DTD SVG 20010904//EN"
 "http://www.w3.org/TR/2001/REC-SVG-20010904/DTD/svg10.dtd">
<svg version="1.0" xmlns="http://www.w3.org/2000/svg"
 width="1024.000000pt" height="1024.000000pt" viewBox="0 0 1024.000000 1024.000000"
 preserveAspectRatio="xMidYMid meet">

<g transform="translate(0.000000,1024.000000) scale(0.100000,-0.100000)"
fill="#000000" stroke="none">
<path d="M0 5120 l0 -5120 5120 0 5120 0 0 5120 0 5120 -5120 0 -5120 0 0
-5120z m4788 3840 c46 -28 49 -99 6 -137 -77 -69 -187 31 -128 115 30 44 74
51 122 22z m494 -10 c26 -32 24 -92 -4 -117 -34 -30 -55 -34 -94 -18 -63 26
-77 101 -28 150 25 24 101 15 126 -15z m300 -127 c22 -20 23 -70 1 -95 -35
-39 -103 -7 -103 49 0 55 61 83 102 46z m268 -15 c25 -28 26 -52 0 -78 -24
-24 -47 -25 -72 -3 -25 23 -23 68 4 87 30 21 43 20 68 -6z m-1393 -20 c13 -12
23 -29 23 -38 0 -59 -87 -85 -113 -32 -15 29 -13 47 11 75 20 23 51 22 79 -5z
m580 2 c105 -47 113 -199 14 -249 -49 -26 -95 -27 -141 -3 -116 58 -103 225
20 260 50 15 60 14 107 -8z m-884 -30 c6 -22 -18 -53 -36 -47 -18 6 -31 33
-24 51 9 23 53 21 60 -4z m1983 -45 c20 -30 11 -62 -22 -77 -47 -22 -84 43
-47 84 22 25 50 23 69 -7z m-2242 -17 c17 -28 -4 -72 -36 -76 -38 -5 -64 35
-47 72 10 22 18 26 42 24 17 -2 35 -11 41 -20z m2515 -95 c32 -27 39 -85 12
-112 -44 -44 -107 -33 -133 24 -30 67 63 135 121 88z m-1682 -30 c38 -67 128
-133 181 -133 21 0 22 -3 16 -37 -4 -21 -8 -40 -11 -42 -2 -3 -56 -8 -121 -12
-549 -35 -1160 -281 -1569 -633 -59 -51 -124 -110 -142 -130 l-35 -36 -97 0
-97 0 -158 155 -159 154 48 47 49 47 51 -50 c100 -97 162 -153 170 -153 5 0
59 44 120 98 148 130 195 166 302 239 361 243 799 420 1235 497 188 34 192 33
217 -11z m738 6 c256 -47 482 -118 735 -232 313 -140 572 -308 838 -545 l73
-65 27 24 c15 13 64 61 110 107 l83 83 49 -43 c26 -24 48 -46 49 -49 1 -6
-207 -210 -285 -279 l-39 -35 -97 6 -98 6 -73 69 c-301 285 -689 501 -1117
622 -224 64 -368 89 -563 100 l-121 7 -7 32 c-7 38 -2 48 31 58 61 19 137 86
163 143 11 23 15 24 72 18 33 -4 110 -16 170 -27z m-1820 -4 c29 -28 32 -55 8
-83 -44 -52 -123 -24 -123 43 0 62 70 86 115 40z m-231 -131 c38 -37 7 -97
-39 -76 -42 19 -28 90 17 92 4 0 14 -7 22 -16z m3204 -67 c3 -22 -1 -27 -18
-27 -26 0 -37 25 -20 45 18 22 34 13 38 -18z m252 -56 c0 -11 -5 -23 -11 -27
-15 -9 -33 12 -26 30 9 23 37 20 37 -3z m-3742 -19 c3 -16 -2 -22 -17 -22 -24
0 -33 13 -25 35 9 23 38 14 42 -13z m1932 -62 c43 -22 83 -76 93 -127 9 -48
-18 -124 -61 -174 -56 -64 -69 -94 -91 -213 -10 -59 -21 -109 -23 -112 -3 -2
-10 27 -16 64 -21 127 -50 200 -98 252 -89 96 -99 196 -26 274 55 58 149 73
222 36z m-2115 -116 c0 -10 -8 -20 -17 -22 -18 -3 -26 27 -11 42 12 11 28 0
28 -20z m4134 12 c15 -18 3 -46 -20 -46 -22 0 -34 22 -25 45 7 19 30 19 45 1z
m-2547 -33 c24 -21 23 -45 -2 -68 -44 -40 -97 27 -54 69 20 20 33 20 56 -1z
m959 -15 c16 -29 3 -67 -26 -74 -29 -7 -44 1 -55 30 -8 21 4 55 23 67 15 11
47 -2 58 -23z m-1267 -21 c19 -26 19 -30 5 -55 -11 -20 -24 -28 -50 -30 -37
-3 -52 7 -63 45 -5 17 -1 29 19 49 31 31 61 29 89 -9z m-1334 -43 c0 -9 -5
-14 -12 -12 -18 6 -21 28 -4 28 9 0 16 -7 16 -16z m4260 -19 c0 -8 -4 -15 -9
-15 -13 0 -22 16 -14 24 11 11 23 6 23 -9z m-1273 -31 c21 -21 24 -32 19 -62
-7 -43 -28 -62 -70 -62 -43 0 -76 35 -76 81 0 68 76 94 127 43z m-1877 -64
c16 -29 3 -60 -24 -60 -26 0 -46 17 -46 40 0 40 52 54 70 20z m-287 -81 c31
-16 37 -28 37 -71 0 -47 -28 -78 -71 -78 -42 0 -64 14 -79 50 -29 70 45 134
113 99z m642 -50 c70 -33 111 -106 103 -183 -5 -44 -5 -45 71 -118 262 -254
441 -419 449 -416 5 1 122 111 261 243 l251 239 0 58 c0 73 17 114 63 155 105
92 273 22 285 -119 8 -106 -51 -176 -158 -187 l-59 -6 -113 -110 c-239 -232
-511 -490 -525 -499 -11 -6 -33 9 -82 56 -36 35 -176 170 -311 298 -135 129
-249 241 -253 248 -6 9 -18 11 -33 8 -40 -11 -114 14 -150 50 -84 85 -58 236
50 285 54 24 96 24 151 -2z m1905 -4 c19 -23 4 -65 -23 -65 -13 0 -28 5 -35
12 -13 13 -16 50 -5 61 12 12 50 7 63 -8z m-1384 -128 c51 -49 95 -89 99 -89
4 0 56 48 115 107 60 59 113 105 119 104 5 -2 31 -24 56 -48 l47 -44 -132
-131 c-73 -72 -150 -146 -171 -164 l-37 -33 -170 166 -170 165 51 50 52 49 25
-22 c13 -12 66 -62 116 -110z m-2306 -45 l160 -154 0 -107 0 -107 -47 -64
c-74 -102 -195 -308 -248 -424 -34 -74 -54 -106 -66 -106 -11 0 -26 -22 -44
-65 -16 -36 -32 -65 -36 -65 -5 0 3 26 17 58 14 31 28 62 30 68 7 16 -11 27
-101 64 -44 18 -82 34 -83 35 -2 2 30 73 71 157 84 172 167 308 271 447 l70
93 -128 122 -128 121 43 43 c23 23 46 41 50 40 5 -2 80 -72 169 -156z m5034
112 l40 -45 -122 -122 -121 -122 25 -30 c185 -222 384 -607 474 -918 57 -198
97 -423 113 -632 l5 -61 -59 -17 c-74 -22 -125 -67 -168 -147 -18 -33 -41 -69
-52 -79 -20 -19 -20 -19 -1 -32 10 -8 32 -41 47 -73 39 -83 99 -140 169 -162
56 -18 56 -18 56 -57 0 -105 -57 -391 -114 -567 -20 -64 -74 -208 -81 -218 -3
-3 -227 77 -233 83 -2 2 14 59 36 127 73 223 116 420 131 594 9 107 3 139 -38
182 -28 28 -35 28 -51 -4 -16 -29 -80 -69 -126 -79 -47 -9 -115 12 -172 55
-65 50 -109 72 -200 101 -39 13 -69 26 -65 29 5 4 46 19 93 34 47 15 103 40
125 56 129 95 165 109 236 90 23 -6 60 -29 85 -52 l45 -41 29 28 c45 43 51 82
40 231 -34 441 -184 877 -429 1246 l-91 137 0 98 0 97 163 158 c89 86 164 157
167 157 3 -1 23 -21 44 -45z m-1134 -64 c24 -24 25 -38 4 -68 -28 -40 -104
-18 -104 30 0 56 59 79 100 38z m-2542 -49 c20 -10 45 -27 54 -38 25 -28 48
-88 48 -126 0 -44 -47 -136 -76 -149 l-24 -11 0 -450 0 -450 -407 4 -408 4 3
-65 c2 -36 -2 -80 -7 -99 -6 -19 -7 -39 -3 -46 4 -7 150 -158 325 -335 l317
-322 -102 -107 c-56 -58 -199 -206 -317 -328 l-216 -222 0 -106 0 -105 408 0
407 0 0 -388 0 -388 30 -22 c102 -76 88 -247 -26 -302 -74 -36 -162 -22 -216
36 -70 75 -63 184 17 260 l35 33 -2 303 -3 303 -345 5 -345 5 -50 27 c-27 14
-76 31 -107 36 -31 6 -71 21 -88 33 -63 47 -88 153 -54 225 21 44 78 93 116
101 18 4 33 14 35 25 4 12 14 18 32 18 21 0 47 21 115 93 49 50 169 174 268
275 l180 183 -277 284 c-153 157 -282 285 -286 285 -5 0 -14 11 -20 24 -7 15
-23 26 -42 30 -73 15 -137 98 -137 180 0 109 75 186 183 186 33 0 49 6 67 25
l23 25 364 0 363 0 2 233 c1 127 2 290 2 362 l1 129 -42 42 c-86 86 -66 236
39 287 45 22 120 21 166 -2z m2258 -6 c98 -58 112 -199 28 -290 l-24 -26 0
-365 0 -364 358 0 359 0 23 -25 c19 -20 33 -25 74 -25 113 -1 191 -74 191
-179 0 -75 -27 -126 -84 -162 -25 -16 -53 -29 -62 -29 -10 0 -20 -9 -24 -20
-3 -11 -18 -27 -33 -37 -15 -10 -147 -139 -294 -288 l-267 -270 270 -277 c231
-237 275 -278 300 -278 17 0 32 -7 38 -19 6 -10 22 -22 36 -25 35 -9 95 -65
111 -103 17 -39 18 -101 3 -140 -24 -64 -108 -122 -179 -123 -24 -1 -46 -10
-70 -30 l-34 -30 -358 0 -358 0 0 -310 0 -310 35 -45 c110 -144 -1 -324 -180
-291 -43 8 -103 59 -121 103 -32 76 -2 174 67 220 l39 26 0 383 0 384 408 0
407 0 -1 109 0 110 -291 293 c-160 161 -303 308 -318 326 l-27 32 322 328 322
327 -6 44 c-3 24 -6 71 -6 105 l0 61 -407 0 -407 0 -4 445 c-3 320 -7 446 -16
449 -23 8 -75 72 -86 107 -25 73 10 164 79 211 48 33 129 32 187 -2z m-2822
-4 c21 -23 14 -56 -15 -71 -28 -16 -59 4 -59 38 0 51 42 69 74 33z m-1060
-137 c30 -29 9 -84 -31 -84 -21 0 -53 29 -53 48 0 22 30 52 51 52 10 0 25 -7
33 -16z m5414 4 c35 -35 -15 -99 -53 -68 -30 25 -12 80 25 80 9 0 21 -5 28
-12z m-1108 -43 c10 -12 10 -18 0 -30 -17 -21 -37 -19 -45 5 -12 37 20 55 45
25z m-3210 -14 c0 -11 -5 -23 -11 -27 -15 -9 -33 12 -26 30 9 23 37 20 37 -3z
m-271 -11 c141 -71 146 -272 9 -339 -97 -46 -217 -9 -264 81 -21 40 -18 131 6
178 45 88 161 126 249 80z m3859 1 c48 -24 66 -45 93 -105 26 -60 22 -107 -16
-172 -62 -106 -225 -113 -308 -15 -14 17 -31 55 -37 84 -11 49 -10 58 9 102
28 63 46 83 96 106 52 24 116 24 163 0z m-2833 -166 c14 -13 25 -29 25 -35 0
-15 -46 -60 -62 -60 -22 1 -58 37 -58 59 0 25 33 61 55 61 9 0 27 -11 40 -25z
m3769 -1 c34 -33 8 -82 -38 -70 -32 8 -40 42 -15 67 23 23 33 24 53 3z m-5829
-28 c29 -44 -17 -86 -56 -50 -23 21 -24 32 -2 56 22 24 39 23 58 -6z m4445
-146 l0 -170 171 0 171 0 -6 -25 c-4 -14 -9 -45 -13 -70 l-6 -45 -233 0 -234
0 0 208 c0 114 4 212 8 218 9 13 101 52 125 53 16 1 17 -13 17 -169z m-3032
139 l62 -21 0 -176 c0 -98 -3 -194 -6 -214 l-7 -38 -228 0 -229 0 0 38 c0 20
-4 52 -9 70 l-10 32 170 0 169 0 0 165 c0 129 3 165 13 165 7 0 41 -9 75 -21z
m2330 -29 c12 -12 22 -30 22 -40 0 -22 -33 -60 -53 -60 -27 0 -57 31 -57 60 0
18 8 34 22 44 29 21 40 20 66 -4z m-1418 -293 l5 -187 118 -105 c65 -58 121
-105 125 -105 4 0 16 32 26 71 l18 71 -86 88 c-47 48 -86 91 -86 96 0 10 71
84 81 84 4 0 72 -66 153 -147 l146 -148 0 83 0 82 50 0 50 0 0 -80 c0 -44 3
-80 6 -80 4 0 71 66 149 148 l144 147 46 -46 47 -46 -90 -92 -90 -92 20 -74
20 -75 49 41 c27 22 84 72 126 111 l78 71 0 66 c0 36 1 121 3 189 l2 123 70
-3 71 -3 0 -375 c0 -206 3 -390 7 -408 l7 -32 79 73 79 73 39 -42 c21 -23 38
-45 37 -50 0 -5 -34 -38 -74 -74 -41 -36 -74 -68 -74 -72 -1 -5 166 -8 369 -8
204 0 370 -2 370 -4 0 -2 -12 -29 -26 -59 -21 -48 -30 -57 -57 -62 -18 -3 -42
-5 -54 -3 -17 2 -71 -46 -238 -212 l-216 -215 115 -3 c64 -1 116 -5 116 -7 0
-3 -6 -14 -12 -25 -10 -16 -10 -24 0 -40 6 -11 12 -22 12 -25 0 -3 -49 -5
-110 -5 -68 0 -110 -4 -110 -10 0 -9 387 -412 415 -432 5 -4 33 -8 62 -8 l51
0 15 -42 c8 -24 18 -51 22 -60 7 -17 -14 -18 -361 -18 l-369 0 77 -77 77 -78
-34 -39 c-40 -45 -33 -48 -144 53 l-71 63 0 -396 0 -396 -70 0 -70 0 -1 143
c0 207 4 196 -119 307 -58 52 -115 103 -127 113 -20 18 -21 17 -38 -48 l-18
-66 89 -90 88 -89 -39 -40 c-22 -22 -43 -39 -49 -37 -5 2 -73 68 -152 147
l-144 145 0 -82 0 -83 -45 0 -45 0 0 83 -1 82 -147 -153 -147 -154 -42 42
c-24 23 -43 44 -43 48 0 4 38 45 85 92 l84 85 -16 65 c-19 77 -18 76 -36 59
-8 -8 -66 -61 -130 -119 l-116 -105 -1 -172 0 -173 -75 0 -75 0 -2 392 -3 393
-76 -73 c-42 -39 -80 -72 -85 -71 -10 1 -79 78 -73 82 2 1 38 35 80 75 l77 72
-359 0 c-197 0 -359 3 -359 6 0 3 7 30 16 60 l15 54 50 0 50 0 212 216 c117
119 214 220 215 225 2 5 -48 9 -112 9 -64 0 -116 2 -116 5 0 3 6 14 12 25 10
15 10 22 0 32 -32 32 -14 38 103 38 63 0 115 4 115 9 0 4 -97 102 -216 217
l-216 209 -46 -3 -47 -2 -23 49 c-40 88 -68 81 338 81 215 0 360 4 360 9 0 5
-34 40 -75 77 -41 37 -75 72 -75 78 0 6 16 28 36 49 l35 38 85 -76 84 -77 0
411 0 412 73 -3 72 -3 5 -188z m3618 113 c83 -51 52 -170 -45 -170 -42 0 -93
46 -93 84 0 40 22 78 55 92 40 18 45 17 83 -6z m-5996 -37 c12 -11 18 -31 18
-58 0 -94 -123 -127 -165 -44 -19 35 -19 53 0 89 26 50 99 56 147 13z m822
-49 c12 -32 6 -55 -19 -66 -19 -8 -28 -8 -40 2 -18 15 -20 66 -2 73 25 11 55
6 61 -9z m4294 -57 c-2 -16 -10 -22 -28 -22 -28 0 -39 27 -20 50 18 21 52 1
48 -28z m1087 -72 c48 -47 22 -115 -44 -115 -71 0 -99 72 -47 117 35 30 61 29
91 -2z m-6435 -15 c28 -28 27 -84 -2 -104 -53 -37 -121 -7 -121 54 0 63 78 95
123 50z m5578 -35 c23 -29 19 -59 -11 -80 -28 -20 -39 -19 -65 5 -27 26 -28
54 -2 80 27 27 54 25 78 -5z m-3211 -49 c24 -21 26 -27 18 -52 -6 -18 -21 -33
-39 -39 -25 -8 -31 -6 -51 17 -27 31 -24 61 8 83 28 20 31 19 64 -9z m1668
-26 c21 -23 13 -65 -17 -83 -24 -16 -66 6 -74 38 -13 53 54 86 91 45z m-3666
-100 c94 -35 141 -57 141 -68 0 -4 -9 -41 -21 -82 -72 -262 -120 -641 -88
-703 6 -12 23 -34 37 -49 l25 -28 43 40 c76 70 168 75 252 14 85 -61 146 -94
217 -116 39 -12 72 -24 75 -26 9 -6 -26 -22 -108 -48 -53 -17 -105 -42 -141
-69 -83 -61 -100 -68 -161 -68 -62 0 -101 17 -144 62 -17 17 -35 31 -42 31
-24 0 -64 -83 -64 -131 0 -75 39 -298 76 -439 87 -333 185 -557 363 -837 l91
-141 0 -121 0 -121 -48 -52 c-27 -29 -101 -105 -165 -167 l-117 -115 -42 40
c-24 21 -45 40 -47 42 -3 1 57 65 133 141 l139 139 -35 44 c-95 118 -228 329
-304 480 l-45 89 68 31 c97 43 95 40 62 107 l-28 59 -77 -24 c-43 -13 -79 -22
-81 -20 -2 1 -21 50 -43 108 -53 140 -115 382 -140 543 -23 153 -24 174 -7
179 6 2 31 9 55 15 59 16 106 62 159 152 25 43 51 80 59 83 20 8 17 24 -4 30
-11 4 -36 38 -58 77 -48 89 -88 124 -165 146 l-61 18 6 85 c16 194 54 395 113
583 20 64 37 117 38 117 1 0 38 -14 84 -30z m406 -23 c0 -26 -20 -25 -23 2 -3
16 1 22 10 19 7 -3 13 -12 13 -21z m4896 -28 c26 -26 21 -59 -13 -78 -25 -15
-29 -14 -52 8 -33 31 -33 44 0 70 33 26 39 26 65 0z m751 -146 c10 -9 18 -30
18 -49 0 -57 -69 -85 -110 -44 -60 60 29 150 92 93z m-6430 -30 c10 -9 18 -27
18 -40 0 -28 -33 -63 -60 -63 -26 0 -60 34 -60 62 0 50 63 76 102 41z m4817
-40 c33 -41 13 -83 -39 -83 -33 0 -50 17 -50 51 0 58 54 77 89 32z m-3217 -10
c22 -20 23 -51 1 -75 -20 -22 -42 -23 -71 -2 -26 18 -28 41 -6 72 18 26 50 28
76 5z m4012 -8 c8 -21 -3 -45 -20 -45 -20 0 -29 27 -14 45 16 19 26 19 34 0z
m-4830 -22 c4 -9 0 -23 -9 -32 -13 -14 -17 -14 -31 1 -9 9 -14 24 -11 32 8 21
43 20 51 -1z m-776 -175 c33 -33 -10 -99 -49 -77 -10 5 -23 18 -28 28 -22 39
44 82 77 49z m882 -33 c15 -19 -1 -65 -23 -65 -18 0 -37 21 -37 40 0 36 38 51
60 25z m4648 -10 c10 -21 9 -28 -8 -45 -25 -25 -32 -25 -61 -1 -21 16 -22 22
-11 45 16 36 64 37 80 1z m-4882 -21 c26 -38 -15 -91 -61 -80 -35 9 -52 48
-35 81 21 40 70 40 96 -1z m5734 11 c0 -8 -4 -15 -10 -15 -5 0 -10 7 -10 15 0
8 5 15 10 15 6 0 10 -7 10 -15z m281 -54 c33 -33 35 -50 14 -90 -33 -65 -145
-41 -145 31 0 81 75 114 131 59z m-6874 -3 c30 -28 30 -74 1 -105 -39 -42
-118 -23 -132 32 -7 27 15 80 36 88 31 13 73 6 95 -15z m6003 -32 c0 -20 -19
-31 -32 -18 -6 6 -7 15 -4 21 10 16 36 13 36 -3z m-4532 -555 c-84 -85 -166
-166 -181 -180 l-28 -24 -50 49 -49 48 132 133 133 133 -136 136 -136 136 51
49 51 50 183 -187 182 -188 -152 -155z m4132 429 c0 -4 -59 -66 -131 -140
l-130 -133 130 -131 131 -132 -50 -49 -50 -49 -32 29 c-18 16 -102 97 -186
180 l-152 150 187 187 188 188 47 -47 c27 -26 48 -50 48 -53z m-5177 -152 c75
-53 75 -176 -1 -232 -38 -29 -119 -32 -159 -7 -65 41 -89 119 -58 185 38 79
144 105 218 54z m6074 2 c41 -25 63 -68 63 -122 0 -150 -204 -190 -270 -53
-24 50 -22 90 6 132 39 61 138 82 201 43z m-5657 -415 c0 -25 -23 -35 -35 -15
-10 16 2 40 20 40 9 0 15 -9 15 -25z m-855 -40 c75 -74 -35 -185 -112 -113
-50 47 -12 138 57 138 19 0 40 -9 55 -25z m6896 -4 c35 -36 37 -70 6 -106 -17
-20 -32 -27 -59 -27 -46 0 -57 7 -74 48 -17 42 -6 77 33 98 41 22 61 19 94
-13z m-5837 -86 c5 -21 10 -24 36 -18 32 6 38 -4 20 -38 -8 -14 -7 -25 5 -41
22 -32 19 -38 -20 -38 -31 0 -35 -3 -35 -27 l0 -26 -25 23 c-23 22 -26 22 -43
7 -25 -22 -31 -14 -25 33 5 32 2 39 -16 45 -24 7 -28 23 -6 31 8 4 15 17 15
30 0 21 4 23 25 18 18 -4 27 -1 31 10 9 24 31 19 38 -9z m4938 8 c22 -20 23
-41 1 -65 -20 -22 -41 -23 -65 -1 -22 20 -23 46 -2 67 20 21 43 20 66 -1z
m-240 -80 c23 -21 23 -55 -1 -77 -26 -24 -62 -17 -80 15 -13 24 -13 29 2 53
20 30 52 34 79 9z m-4895 -29 c-9 -9 -28 6 -21 18 4 6 10 6 17 -1 6 -6 8 -13
4 -17z m977 -177 c8 -21 6 -31 -9 -47 -40 -44 -107 -3 -86 53 17 45 79 41 95
-6z m3184 27 c27 -19 28 -44 2 -72 -25 -26 -47 -28 -72 -5 -22 20 -23 51 -1
75 20 22 42 23 71 2z m1594 4 c30 -23 27 -62 -6 -83 -47 -31 -93 22 -62 70 18
27 43 32 68 13z m-6382 -20 c11 -12 20 -30 20 -40 0 -49 -88 -80 -110 -39 -37
70 37 135 90 79z m760 -68 c0 -5 -8 -10 -17 -10 -15 0 -16 2 -3 10 19 12 20
12 20 0z m4796 -161 c10 -17 -13 -36 -27 -22 -12 12 -4 33 11 33 5 0 12 -5 16
-11z m-4759 -21 c28 -26 29 -38 3 -66 -28 -29 -65 -28 -85 2 -14 20 -14 29 -4
48 23 44 51 49 86 16z m1565 -85 c22 -20 23 -51 1 -75 -20 -22 -51 -23 -75 -1
-24 21 -23 44 2 71 25 26 47 28 72 5z m1656 -13 c26 -25 28 -57 5 -82 -23 -25
-48 -22 -72 8 -27 34 -26 40 4 69 29 30 35 31 63 5z m-4024 -51 c53 -42 23
-122 -46 -122 -57 0 -92 79 -50 115 36 32 61 34 96 7z m6426 1 c54 -54 -11
-142 -85 -114 -15 6 -45 53 -45 72 0 5 9 21 21 36 26 33 79 36 109 6z m-964
-62 c-9 -5 -16 -16 -16 -23 0 -8 -4 -15 -10 -15 -5 0 -10 7 -10 15 0 8 -9 19
-19 24 -18 10 -18 12 7 39 l27 29 18 -30 c17 -27 17 -31 3 -39z m-4511 26 c0
-10 -8 -20 -18 -22 -22 -4 -35 27 -16 39 20 12 34 5 34 -17z m4875 -81 c52
-20 97 -37 99 -39 7 -6 -35 -100 -90 -199 -62 -112 -154 -254 -226 -349 l-45
-59 138 -138 c76 -76 136 -140 133 -141 -2 -2 -23 -21 -47 -42 l-42 -40 -165
164 -165 164 0 134 0 134 54 78 c56 80 167 262 205 338 17 33 26 42 39 37 9
-4 60 -23 112 -42z m-4073 -105 c-4 -46 -7 -146 -7 -224 l0 -141 -47 -11 c-27
-6 -56 -14 -65 -17 -17 -7 -18 5 -18 164 l0 171 -165 0 -165 0 0 70 0 70 236
0 237 0 -6 -82z m1933 -425 c114 -112 115 -113 163 -113 133 0 216 -134 157
-254 -57 -119 -233 -130 -301 -19 -19 30 -24 53 -25 106 l-1 68 -134 126 c-74
70 -189 180 -257 246 l-122 119 -38 -32 c-20 -18 -139 -131 -264 -252 l-228
-220 6 -38 c8 -47 -9 -100 -44 -142 -49 -58 -131 -74 -208 -39 -81 37 -116
116 -90 204 25 85 83 127 173 127 l45 0 212 202 c116 111 260 251 321 309
l109 108 206 -197 c113 -108 257 -247 320 -309z m1370 437 l0 -70 -167 -2
-168 -3 -3 -163 c-2 -151 -4 -163 -20 -157 -9 3 -38 11 -63 17 l-47 11 -6 51
c-3 28 -6 126 -6 219 l0 167 240 0 240 0 0 -70z m-4836 19 c36 -42 34 -82 -4
-121 -27 -26 -36 -30 -67 -25 -52 9 -78 38 -78 88 0 83 97 121 149 58z m6011
6 c52 -52 19 -145 -51 -145 -46 0 -63 9 -79 41 -22 41 -18 77 10 104 33 34 87
34 120 0z m-895 -30 c0 -8 -7 -15 -15 -15 -8 0 -15 7 -15 15 0 8 7 15 15 15 8
0 15 -7 15 -15z m-4022 -216 c109 -53 145 -199 71 -293 -31 -40 -90 -66 -149
-66 -111 0 -190 79 -190 190 0 143 139 231 268 169z m2706 8 c26 -19 18 -68
-16 -86 -24 -14 -28 -14 -47 3 -25 23 -27 53 -4 78 19 21 42 23 67 5z m1153
-6 c82 -38 130 -144 103 -228 -52 -157 -248 -182 -344 -45 -63 89 -27 215 76
266 61 31 108 33 165 7z m-2807 -21 c24 -24 25 -38 4 -68 -22 -32 -70 -27 -91
10 -15 24 -15 28 0 52 21 32 59 34 87 6z m-2054 -25 c7 -18 -13 -45 -33 -45
-17 0 -27 24 -19 45 7 20 45 19 52 0z m5728 -73 c-14 -22 -34 -22 -48 1 -9 15
-7 21 9 33 17 12 21 12 34 -1 12 -12 13 -19 5 -33z m-2711 -278 l165 -162 -48
-47 c-36 -36 -52 -45 -64 -38 -9 5 -62 55 -119 111 l-104 102 -116 -110 c-63
-60 -118 -110 -121 -110 -4 0 -27 21 -51 48 l-45 47 162 162 c90 89 166 161
169 160 4 -1 81 -75 172 -163z m1427 36 c0 -5 -4 -10 -10 -10 -5 0 -10 5 -10
10 0 6 5 10 10 10 6 0 10 -4 10 -10z m-3092 -99 c-5 -24 -38 -27 -38 -3 0 10
3 21 6 25 11 11 35 -5 32 -22z m-498 -31 l86 0 76 -63 c282 -235 638 -431 988
-547 205 -67 437 -110 673 -126 59 -4 110 -10 112 -14 10 -17 -9 -41 -42 -55
-58 -24 -109 -72 -139 -130 -16 -30 -36 -55 -44 -55 -45 0 -351 54 -450 80
-465 120 -885 336 -1278 658 l-103 84 -114 -111 c-62 -61 -117 -111 -122 -111
-5 0 -26 18 -47 39 l-38 39 20 30 c12 16 83 89 158 161 109 106 141 131 158
127 12 -3 59 -6 106 -6z m4293 -149 l162 -160 -40 -40 c-21 -23 -44 -41 -50
-41 -6 0 -33 23 -60 51 -28 28 -80 77 -117 110 l-67 60 -123 -99 c-158 -127
-250 -191 -420 -289 -137 -80 -369 -191 -409 -196 -18 -2 -25 11 -56 98 -47
136 -47 135 -33 135 7 0 72 29 144 63 228 111 446 249 603 385 l82 71 98 4
c54 1 104 4 111 5 8 1 86 -70 175 -157z m-1001 77 c2 -18 10 -23 33 -23 28 0
30 -2 30 -40 1 -22 4 -47 8 -56 6 -12 -1 -17 -30 -25 -28 -7 -39 -15 -41 -31
-4 -31 -20 -29 -32 3 -9 22 -14 25 -42 19 l-31 -7 6 38 c5 27 2 43 -9 55 -13
14 -13 18 0 28 8 7 23 11 33 9 12 -2 22 6 30 24 14 34 40 37 45 6z m-2534 -21
c64 -58 -19 -159 -97 -117 -31 16 -45 64 -29 96 25 54 80 62 126 21z m1262
-64 c22 -93 24 -98 79 -152 67 -66 85 -114 69 -183 -31 -139 -188 -189 -295
-95 -94 82 -82 215 27 289 35 23 51 42 55 63 19 97 37 175 40 175 2 0 13 -43
25 -97z m448 -62 c26 -22 28 -48 5 -73 -20 -22 -41 -23 -65 -1 -22 20 -23 51
-1 75 20 23 34 23 61 -1z m445 -67 c26 6 27 4 27 -31 0 -21 3 -48 6 -61 6 -20
4 -22 -18 -17 -20 5 -28 1 -42 -20 -19 -29 -32 -24 -38 15 -2 19 -8 24 -26 23
-28 -3 -30 23 -1 32 16 6 20 13 17 36 -3 20 0 29 9 29 7 0 13 5 13 12 0 6 6 4
13 -7 10 -13 21 -16 40 -11z m-1738 -68 c-15 -11 -16 -16 -5 -35 15 -29 6 -39
-15 -17 -20 19 -27 20 -43 4 -7 -7 -12 -8 -12 -2 0 6 5 15 12 22 9 9 9 15 0
24 -20 20 -14 30 10 17 19 -10 24 -9 37 8 13 17 17 18 24 6 6 -10 3 -19 -8
-27z m2978 -15 c28 -15 35 -35 17 -46 -6 -4 -8 -15 -5 -26 7 -20 -9 -26 -21
-8 -3 6 -17 9 -29 6 -15 -2 -25 2 -29 12 -3 9 -9 22 -12 29 -4 7 2 12 15 12
15 0 21 6 21 21 0 11 3 19 8 17 4 -2 19 -10 35 -17z m-2592 -67 c17 -21 0 -49
-32 -49 -24 0 -36 23 -25 51 7 19 40 18 57 -2z m1368 -273 c17 -58 31 -110 31
-117 0 -33 -404 -133 -612 -152 l-86 -8 -18 40 c-24 55 -92 120 -147 141 -37
14 -47 23 -47 40 0 22 5 24 88 30 158 11 275 26 404 51 123 24 324 77 336 89
11 11 20 -11 51 -114z m516 -167 c14 -15 25 -35 25 -44 0 -25 -45 -70 -70 -70
-29 0 -70 44 -70 74 0 31 36 66 67 66 13 0 35 -12 48 -26z m-2831 0 c26 -25
37 -52 26 -59 -5 -3 -10 2 -10 12 0 14 -2 15 -9 5 -6 -10 -10 -8 -14 8 -4 17
-10 20 -27 15 -12 -4 -28 -1 -36 6 -14 12 -14 14 3 20 30 12 51 10 67 -7z
m1466 -34 c55 -39 76 -121 45 -180 -34 -66 -111 -93 -183 -64 -76 30 -107 102
-77 179 33 88 138 120 215 65z m-1164 -57 c19 -26 17 -57 -6 -78 -17 -15 -26
-17 -48 -9 -15 6 -26 16 -24 22 1 7 -2 12 -8 12 -15 0 -12 31 5 49 20 23 65
25 81 4z m2238 -5 c25 -35 19 -42 -9 -12 -18 20 -25 23 -25 11 0 -9 8 -21 18
-26 9 -6 12 -11 5 -11 -6 0 -18 6 -26 14 -15 15 -31 10 -40 -14 -5 -13 -5 -13
-6 0 -1 20 9 34 34 48 28 16 32 15 49 -10z m-2567 6 c-3 -3 -12 -4 -19 -1 -8
3 -5 6 6 6 11 1 17 -2 13 -5z m10 -20 c-3 -3 -12 -4 -19 -1 -8 3 -5 6 6 6 11
1 17 -2 13 -5z m2522 -55 c-22 -13 -31 -11 -17 5 7 8 17 12 22 9 4 -3 2 -9 -5
-14z m-436 -220 c2 -2 1 -143 -1 -312 l-4 -308 -62 3 -61 3 -3 300 c-1 165 0
306 3 314 4 10 20 12 65 9 33 -2 61 -6 63 -9z m-213 -63 l0 -63 -48 5 c-53 5
-82 -13 -82 -49 0 -16 7 -19 55 -19 l55 0 0 -55 0 -55 -55 0 -55 0 0 -160 0
-160 -65 0 -65 0 0 160 0 160 -34 0 c-38 0 -46 12 -46 71 0 38 1 39 33 39 32
0 34 3 46 51 24 91 89 136 204 138 l57 1 0 -64z m1008 -58 c-3 -62 -3 -137 1
-167 l6 -54 77 82 77 82 73 -3 73 -3 -88 -92 -88 -91 95 -121 c53 -66 96 -122
96 -125 0 -3 -32 -6 -71 -6 -49 0 -75 4 -83 14 -6 7 -35 46 -65 85 l-54 72
-29 -28 c-24 -23 -28 -34 -28 -85 l0 -59 -62 3 -62 3 2 300 c1 165 2 301 2
303 0 1 30 2 67 2 l66 0 -5 -112z m-3336 55 c31 -14 64 -33 73 -44 16 -17 15
-20 -20 -63 l-38 -44 -40 26 c-52 35 -150 39 -173 8 -8 -11 -14 -23 -14 -28 0
-21 45 -47 126 -72 49 -15 104 -37 122 -48 97 -59 83 -216 -25 -269 -91 -45
-254 -26 -332 39 l-33 27 43 44 c39 39 46 42 64 30 70 -44 138 -58 184 -39 62
25 40 70 -47 95 -150 42 -214 87 -228 160 -12 68 25 144 87 175 86 44 155 45
251 3z m510 -113 c43 -12 88 -56 105 -102 7 -20 12 -95 12 -185 l1 -153 -65 0
-65 0 0 128 c0 151 -4 168 -41 187 -41 22 -65 18 -101 -14 -32 -28 -33 -31
-33 -113 -1 -45 -2 -107 -3 -135 l-2 -53 -58 0 -59 0 -6 193 c-3 106 -3 205 0
220 5 27 7 28 62 25 56 -3 56 -3 56 -35 l0 -32 26 25 c26 25 88 53 119 54 8 0
32 -5 52 -10z m503 -1 c134 -34 204 -197 140 -326 -68 -136 -263 -161 -372
-47 -113 118 -67 311 87 364 64 23 86 24 145 9z m1969 -14 c21 -10 50 -36 64
-58 26 -39 27 -46 30 -204 l3 -163 -55 0 c-53 0 -56 1 -56 25 l0 24 -50 -26
c-95 -49 -196 -30 -247 47 -39 57 -21 139 40 184 24 18 43 21 133 21 109 0
122 6 84 40 -28 25 -106 31 -154 11 -22 -9 -40 -15 -41 -14 -14 23 -45 80 -45
84 0 6 66 34 105 45 46 12 147 4 189 -16z m1006 0 c68 -35 130 -137 130 -213
l0 -32 -166 -2 -167 -3 27 -32 c25 -29 34 -33 77 -33 28 0 64 7 80 16 30 15
32 14 70 -12 44 -30 46 -36 23 -59 -48 -48 -143 -72 -219 -55 -106 24 -178
112 -178 220 0 101 72 197 165 221 42 10 123 2 158 -16z m-2639 -12 c34 -94
83 -219 90 -226 3 -5 26 50 49 123 l43 131 50 -3 50 -3 45 -128 c24 -71 48
-125 52 -120 4 4 27 63 50 131 l43 122 67 0 68 0 -27 -72 c-15 -40 -54 -139
-87 -220 l-59 -148 -56 0 -55 0 -44 120 c-25 66 -47 120 -50 120 -3 0 -23 -53
-46 -118 l-41 -117 -55 -3 -55 -3 -80 198 c-110 272 -107 243 -28 243 62 0 66
-1 76 -27z m-1114 -619 c29 -18 20 -49 -11 -39 -44 15 -68 10 -88 -16 -16 -22
-17 -29 -7 -52 14 -30 53 -45 78 -30 22 13 41 5 41 -17 0 -29 -69 -47 -110
-30 -42 17 -60 46 -60 96 0 91 82 137 157 88z m185 -9 c28 -43 39 -44 61 -5
14 23 25 30 48 30 l30 0 -40 -58 c-28 -42 -41 -72 -43 -103 -2 -36 -7 -44 -23
-44 -17 0 -21 8 -25 50 -4 36 -16 64 -43 101 -20 28 -37 54 -37 58 0 3 11 6
25 6 17 0 32 -10 47 -35z m1325 13 c7 -6 13 -17 13 -25 0 -12 -9 -14 -46 -8
-40 6 -45 4 -42 -11 1 -10 16 -21 32 -25 37 -10 66 -37 66 -61 0 -27 -45 -68
-75 -68 -30 0 -85 26 -85 41 0 16 25 21 53 10 30 -11 60 -5 54 12 -2 6 -17 15
-35 21 -17 6 -42 21 -54 34 -21 21 -22 24 -8 50 28 48 88 63 127 30z m198 -18
c15 -22 29 -40 31 -40 1 0 12 16 24 35 15 24 29 35 46 35 13 0 24 -2 24 -5 0
-3 -17 -31 -37 -61 -28 -43 -37 -66 -37 -95 1 -35 -1 -39 -22 -39 -21 0 -24 5
-24 41 0 30 -10 54 -40 99 -22 32 -40 61 -40 64 0 4 11 6 24 6 16 0 32 -12 51
-40z m352 29 c60 -22 51 -53 -13 -43 -36 5 -44 4 -44 -10 0 -9 12 -18 28 -22
47 -11 72 -32 72 -62 -1 -63 -65 -91 -132 -56 l-32 17 23 19 c22 17 26 17 41
3 21 -19 34 -19 49 -1 10 12 8 17 -8 25 -11 6 -28 11 -37 11 -53 0 -72 74 -28
109 30 24 41 25 81 10z m847 -29 l43 -40 41 40 c22 22 49 40 61 40 20 0 21 -5
21 -87 0 -107 -6 -133 -31 -133 -17 0 -19 8 -19 65 0 36 -3 65 -7 65 -5 0 -19
-16 -32 -35 -13 -19 -27 -35 -32 -35 -5 0 -25 17 -44 38 l-36 37 2 -40 c2 -84
0 -95 -21 -95 -19 0 -20 7 -20 103 0 136 5 141 74 77z m405 29 c20 -7 31 -18
31 -30 0 -21 -16 -24 -53 -10 -19 8 -27 6 -31 -5 -4 -10 8 -21 39 -34 53 -23
69 -52 49 -92 -18 -35 -60 -44 -113 -22 -51 20 -58 50 -8 39 42 -10 68 -8 80
4 7 7 0 14 -19 21 -69 28 -79 35 -82 67 -2 24 3 36 24 52 31 24 39 25 83 10z
m-2753 -20 c11 -12 17 -32 16 -50 -1 -16 2 -38 8 -49 12 -22 -4 -66 -27 -74
-8 -4 -39 -9 -69 -12 l-54 -7 0 107 0 106 53 0 c42 0 58 -5 73 -21z m292 -1
c-3 -20 -10 -23 -50 -26 -34 -2 -48 -7 -48 -18 0 -10 12 -14 40 -14 36 0 40
-2 40 -25 0 -23 -4 -25 -41 -25 -33 0 -40 -3 -37 -17 3 -15 12 -17 51 -15 45
4 47 3 47 -22 0 -25 -1 -26 -69 -26 l-70 0 -3 105 -3 105 73 0 c70 0 73 -1 70
-22z m253 11 c35 -18 42 -57 19 -97 l-21 -35 21 -29 21 -28 -34 0 c-27 0 -34
5 -44 30 -16 43 -43 40 -43 -5 0 -27 -4 -35 -19 -35 -15 0 -19 11 -25 61 -3
34 -6 82 -6 105 l0 44 56 0 c30 0 64 -5 75 -11z m1309 -9 c0 -16 -7 -20 -35
-20 l-35 0 0 -85 c0 -78 -2 -85 -20 -85 -18 0 -20 7 -20 86 l0 86 -35 -4 c-31
-4 -35 -1 -35 19 0 22 3 23 90 23 83 0 90 -1 90 -20z m270 -5 c0 -23 -4 -25
-45 -25 -33 0 -45 -4 -45 -15 0 -11 11 -15 40 -15 36 0 40 -2 40 -25 0 -22 -4
-25 -40 -25 -34 0 -40 -3 -40 -21 0 -19 4 -21 50 -15 48 6 50 5 50 -19 0 -24
-2 -25 -75 -25 l-75 0 0 105 0 105 70 0 c68 0 70 -1 70 -25z"/>
<path d="M4928 8164 c-49 -26 -61 -74 -31 -125 16 -26 57 -49 89 -49 7 0 27
14 44 30 27 26 31 37 28 72 -2 35 -9 46 -37 65 -39 27 -56 28 -93 7z"/>
<path d="M5634 7710 c-58 -23 -73 -113 -28 -155 38 -35 87 -34 125 4 38 38 39
80 2 120 -31 34 -67 45 -99 31z"/>
<path d="M4227 7699 c-28 -16 -46 -67 -36 -101 28 -100 179 -82 179 22 0 68
-83 114 -143 79z"/>
<path d="M7443 5586 c-22 -19 -28 -32 -28 -66 0 -105 142 -125 175 -26 29 88
-76 153 -147 92z"/>
<path d="M3779 7511 c-33 -33 -37 -67 -14 -111 46 -88 175 -52 175 48 0 33 -6
45 -31 66 -43 36 -91 35 -130 -3z"/>
<path d="M2900 6409 c-29 -11 -60 -57 -60 -89 0 -29 26 -77 49 -90 35 -18 79
-11 112 18 81 73 1 200 -101 161z"/>
<path d="M2869 4811 c-33 -34 -38 -75 -14 -121 51 -98 188 -44 176 70 -8 77
-105 107 -162 51z"/>
<path d="M3798 3785 c-31 -17 -52 -71 -42 -109 9 -38 50 -66 94 -66 31 0 44 7
69 35 34 39 36 48 20 93 -20 57 -83 78 -141 47z"/>
<path d="M6055 7531 c-66 -27 -79 -105 -27 -152 43 -39 89 -39 124 -1 37 38
44 74 22 111 -26 45 -72 61 -119 42z"/>
<path d="M6970 6406 c-82 -46 -51 -186 40 -186 67 0 118 59 105 119 -13 61
-92 97 -145 67z"/>
<path d="M6949 4811 c-42 -42 -40 -92 5 -137 48 -48 92 -47 135 1 46 53 38
120 -18 150 -47 24 -88 19 -122 -14z"/>
<path d="M6039 3785 c-32 -17 -54 -66 -45 -101 10 -40 53 -74 93 -74 27 0 44
9 70 35 30 30 35 40 29 68 -8 41 -58 87 -94 87 -15 -1 -39 -7 -53 -15z"/>
<path d="M3004 7304 c-74 -36 -70 -142 6 -174 59 -25 130 22 130 85 0 49 -15
74 -55 91 -42 17 -43 17 -81 -2z"/>
<path d="M6858 7305 c-73 -41 -61 -148 20 -176 59 -20 122 26 122 90 0 76 -78
122 -142 86z"/>
<path d="M4390 6504 l1 -79 86 -65 c48 -36 98 -72 113 -81 l26 -16 15 51 15
51 -109 95 c-162 141 -147 136 -147 44z"/>
<path d="M5436 6484 c-54 -46 -107 -91 -119 -99 -20 -14 -20 -15 -2 -69 16
-48 21 -53 35 -43 10 7 58 43 109 82 l91 70 0 72 c0 40 -3 73 -7 73 -5 -1 -52
-39 -107 -86z"/>
<path d="M4766 6433 c-16 -49 -47 -136 -69 -195 l-41 -106 -46 31 c-25 17 -81
58 -125 90 l-80 60 -3 -79 c-3 -91 -30 -58 197 -254 203 -175 232 -200 239
-200 4 0 17 8 29 18 22 17 22 20 24 321 l1 304 -49 49 -49 48 -28 -87z"/>
<path d="M5095 6467 l-50 -52 3 -303 3 -303 33 -16 c40 -19 21 -32 232 157 71
64 149 132 174 153 l45 38 5 85 c3 46 3 84 1 84 -2 0 -40 -29 -85 -63 -90 -71
-165 -122 -169 -116 -1 2 -8 20 -15 39 -7 19 -33 87 -57 151 -25 64 -47 135
-51 158 -4 22 -9 41 -13 41 -3 0 -28 -24 -56 -53z"/>
<path d="M4130 6023 c0 -5 41 -54 90 -111 95 -109 114 -137 105 -152 -7 -12
-49 -19 -163 -28 l-94 -7 63 -63 c40 -40 66 -59 73 -53 6 4 125 11 265 15 140
4 257 9 260 12 6 6 -42 53 -267 262 l-143 132 -95 0 c-52 0 -94 -3 -94 -7z"/>
<path d="M5526 5932 c-56 -54 -150 -143 -210 -197 -108 -99 -109 -100 -80
-106 16 -4 146 -7 289 -8 l261 -1 47 48 c26 26 47 50 47 53 0 4 -46 9 -102 13
-123 8 -148 14 -148 32 0 7 47 69 105 138 l105 126 -106 0 -107 0 -101 -98z"/>
<path d="M3870 5915 l105 -105 103 0 c57 0 102 4 100 9 -1 4 -44 52 -94 105
l-91 96 -114 0 -114 0 105 -105z"/>
<path d="M5880 5925 c-47 -52 -86 -99 -88 -105 -2 -6 29 -11 80 -12 104 -2
121 0 128 13 4 5 49 53 100 104 l93 95 -114 0 -114 0 -85 -95z"/>
<path d="M4944 5720 c-51 -11 -98 -46 -123 -90 -45 -81 -10 -189 75 -230 151
-74 310 81 234 229 -31 62 -120 105 -186 91z"/>
<path d="M4146 5421 l-69 -69 44 -6 c24 -3 80 -8 124 -11 44 -4 81 -8 82 -9 9
-8 -58 -106 -132 -195 l-85 -101 96 0 95 0 132 128 c73 70 171 164 218 208 48
43 87 85 88 92 1 9 -57 12 -258 12 -167 0 -261 4 -263 10 -2 6 -34 -21 -72
-59z"/>
<path d="M5468 5473 c-205 -3 -258 -6 -258 -16 0 -12 143 -148 387 -369 l63
-58 91 0 91 0 -40 48 c-54 65 -136 181 -155 218 l-16 31 46 7 c25 3 67 6 93 6
26 0 62 3 80 6 l32 7 -63 63 c-35 35 -70 63 -79 62 -8 -2 -131 -4 -272 -5z"/>
<path d="M4760 5249 c-41 -38 -137 -124 -213 -192 -76 -67 -140 -131 -143
-142 -3 -11 -4 -52 -2 -91 l3 -71 124 104 c68 57 127 103 131 103 14 0 90
-187 113 -277 12 -48 23 -90 24 -92 4 -6 132 131 133 142 0 4 -6 6 -12 5 -10
-2 -14 59 -18 270 -5 273 -5 274 -29 293 -13 10 -26 19 -30 19 -3 -1 -40 -32
-81 -71z"/>
<path d="M5076 5299 l-26 -20 0 -271 c0 -243 -2 -272 -17 -283 -15 -11 -10
-20 47 -79 l65 -66 18 82 c17 78 82 244 111 284 13 17 19 14 82 -42 75 -65
163 -137 179 -146 6 -4 9 27 7 88 l-3 94 -171 152 c-94 84 -189 170 -212 190
-22 20 -44 37 -47 38 -4 0 -18 -9 -33 -21z"/>
<path d="M3899 5172 c-52 -53 -103 -107 -113 -119 l-19 -23 114 0 114 0 22 31
c12 17 54 67 93 111 40 43 71 80 69 82 -2 2 -45 6 -94 9 l-91 6 -95 -97z"/>
<path d="M5837 5261 l-58 -6 96 -112 97 -113 109 0 c60 0 109 2 109 4 0 3 -50
57 -112 120 -124 128 -106 120 -241 107z"/>
<path d="M4503 4727 l-112 -92 0 -78 -1 -78 128 112 c70 61 132 117 139 123 9
8 7 22 -9 59 -11 26 -23 47 -27 46 -3 0 -56 -41 -118 -92z"/>
<path d="M5302 4788 c-6 -18 -13 -40 -16 -49 -5 -11 27 -45 111 -120 171 -151
153 -144 153 -57 l0 74 -114 92 c-63 51 -117 92 -120 92 -3 0 -9 -15 -14 -32z"/>
<path d="M2385 5585 c-56 -56 -18 -155 60 -155 48 0 95 45 95 90 0 76 -102
119 -155 65z"/>
<path d="M2741 4394 c0 -11 3 -14 6 -6 3 7 2 16 -1 19 -3 4 -6 -2 -5 -13z"/>
<path d="M4219 3561 c-23 -23 -29 -38 -29 -71 0 -118 164 -122 186 -4 16 86
-93 138 -157 75z"/>
<path d="M5599 3561 c-21 -22 -29 -39 -29 -66 0 -45 45 -95 85 -95 34 0 82 25
95 49 24 47 7 102 -40 126 -44 23 -78 19 -111 -14z"/>
<path d="M1970 4180 c0 -5 5 -10 11 -10 5 0 7 5 4 10 -3 6 -8 10 -11 10 -2 0
-4 -4 -4 -10z"/>
<path d="M2976 3889 c-30 -35 -33 -67 -11 -109 30 -57 95 -67 145 -22 67 60
23 162 -69 162 -31 0 -44 -6 -65 -31z"/>
<path d="M6839 3891 c-66 -66 -3 -177 89 -156 59 12 92 77 67 129 -30 62 -107
75 -156 27z"/>
<path d="M4933 3135 c-38 -16 -53 -42 -53 -90 0 -79 97 -116 154 -58 32 32 40
60 27 95 -19 49 -79 74 -128 53z"/>
<path d="M3825 2520 c-11 -5 -15 -9 -8 -9 6 -1 13 -11 15 -23 2 -12 8 -23 15
-25 12 -4 12 14 0 35 -5 6 -5 17 -2 22 7 11 7 11 -20 0z"/>
<path d="M3876 2483 c-6 -14 -5 -15 5 -6 7 7 10 15 7 18 -3 3 -9 -2 -12 -12z"/>
<path d="M4020 1948 c-14 -7 -33 -30 -44 -52 -16 -32 -17 -44 -7 -76 25 -85
115 -108 177 -46 28 28 34 42 34 75 0 79 -90 135 -160 99z"/>
<path d="M5941 1821 c-13 -3 -30 -16 -37 -27 -37 -54 70 -90 130 -43 29 23 35
63 10 73 -20 7 -71 6 -103 -3z"/>
<path d="M6965 1954 c-29 -15 -45 -31 -45 -46 0 -5 41 -8 90 -8 73 0 90 3 90
15 0 37 -90 63 -135 39z"/>
<path d="M3837 1394 c-17 -18 -6 -35 21 -32 16 2 27 9 27 18 0 16 -36 26 -48
14z"/>
<path d="M3837 1313 c-17 -16 -5 -33 22 -33 27 0 47 20 34 34 -8 8 -48 8 -56
-1z"/>
<path d="M4380 1376 c0 -31 35 -45 58 -23 13 13 13 19 2 31 -7 9 -23 16 -36
16 -19 0 -24 -5 -24 -24z"/>
</g>
</svg>
